<svg id="visual" viewBox="0 0 900 600" width="900" height="600" xmlns="http://www.w3.org/2000/svg" xmlns:xlink="http://www.w3.org/1999/xlink" version="1.1"><rect x="0" y="0" width="900" height="600" fill="#F5F2EE"></rect><defs><linearGradient id="grad1_0" x1="33.3%" y1="100%" x2="100%" y2="0%"><stop offset="20%" stop-color="#f5f2ee" stop-opacity="1"></stop><stop offset="80%" stop-color="#f5f2ee" stop-opacity="1"></stop></linearGradient></defs><defs><linearGradient id="grad2_0" x1="0%" y1="100%" x2="66.7%" y2="0%"><stop offset="20%" stop-color="#f5f2ee" stop-opacity="1"></stop><stop offset="80%" stop-color="#f5f2ee" stop-opacity="1"></stop></linearGradient></defs><g transform="translate(900, 600)"><path d="M-299 0C-304.2 -59 -309.5 -118.1 -281 -162.2C-252.6 -206.4 -190.5 -235.7 -138 -239C-85.5 -242.3 -42.8 -219.7 0 -197L0 0Z" fill="#6dd0db"></path></g><g transform="translate(0, 0)"><path d="M324.5 0C259.1 23.8 193.8 47.5 174.1 100.5C154.4 153.5 180.4 235.6 159 275.4C137.6 315.2 68.8 312.6 0 310L0 0Z" fill="#6dd0db"></path></g></svg>